<?xml version="1.0" standalone="no"?>
<!DOCTYPE svg PUBLIC "-//W3C//DTD SVG 20010904//EN"
 "http://www.w3.org/TR/2001/REC-SVG-20010904/DTD/svg10.dtd">
<svg version="1.0" xmlns="http://www.w3.org/2000/svg"
 width="1664.000000pt" height="1664.000000pt" viewBox="0 0 1664.000000 1664.000000"
 preserveAspectRatio="xMidYMid meet">
<metadata>
Created by potrace 1.14, written by Peter Selinger 2001-2017
</metadata>
<g transform="translate(0.000000,1664.000000) scale(0.100000,-0.100000)"
fill="#000000" stroke="none">
<path d="M16117 11673 c-2 -1 -61 -4 -132 -8 -72 -3 -170 -8 -220 -10 -49 -2
-144 -7 -210 -10 -66 -3 -158 -7 -205 -10 -47 -2 -146 -7 -220 -10 -156 -6
-327 -14 -479 -20 -116 -6 -312 -14 -378 -16 -39 -1 -43 -4 -44 -28 -1 -14 -2
-37 -4 -51 -1 -14 -6 -81 -10 -150 -4 -69 -9 -147 -11 -175 -1 -27 -6 -90 -9
-140 -6 -92 -10 -154 -20 -305 -4 -47 -8 -121 -10 -165 -2 -44 -5 -80 -5 -80
-1 0 -3 -29 -5 -65 -2 -36 -6 -101 -9 -145 -3 -44 -8 -134 -12 -200 -3 -66 -7
-147 -10 -180 -2 -33 -6 -114 -9 -180 -3 -66 -7 -141 -9 -166 l-4 -47 81 -38
c45 -21 113 -53 152 -71 l70 -32 25 24 26 25 64 -33 c36 -19 83 -44 105 -57
22 -12 65 -36 95 -52 30 -17 60 -33 65 -37 6 -4 26 -14 45 -21 19 -7 47 -22
61 -31 14 -10 29 -16 33 -12 3 3 6 1 6 -5 0 -7 3 -11 8 -10 4 1 49 -19 99 -45
51 -26 94 -46 95 -45 2 2 17 -6 33 -18 17 -11 77 -44 135 -73 58 -30 113 -61
123 -69 9 -8 17 -12 17 -8 0 3 12 -1 26 -10 14 -10 39 -24 56 -33 34 -17 47
-50 20 -52 -10 -1 -41 -1 -70 0 l-53 1 6 -57 c3 -32 7 -87 10 -123 3 -36 7
-91 10 -122 9 -105 15 -172 20 -248 3 -41 7 -93 10 -115 3 -22 7 -74 10 -115
3 -42 7 -96 10 -120 3 -25 8 -81 11 -125 3 -44 8 -102 10 -130 3 -27 6 -218 8
-423 l3 -374 -56 6 c-31 4 -71 8 -89 11 -79 11 -110 14 -157 20 -27 3 -66 8
-85 10 -19 3 -59 7 -88 10 -29 4 -61 8 -70 10 -9 1 -45 6 -80 10 -34 4 -64 10
-66 14 -2 3 -7 69 -10 146 -4 77 -9 174 -11 215 -5 80 -12 229 -20 400 -3 58
-7 141 -10 185 -2 44 -7 139 -10 210 -4 72 -8 162 -10 200 -3 39 -7 131 -10
205 -9 192 -12 230 -17 236 -5 4 -81 9 -189 13 -22 1 -25 5 -25 34 1 27 -3 32
-24 33 -39 3 -164 6 -177 5 -9 -1 -11 -33 -8 -123 1 -68 5 -130 7 -138 2 -11
-9 -14 -51 -15 -47 0 -55 3 -56 20 -3 28 -35 177 -40 185 -7 11 -189 -1 -197
-13 -3 -5 -4 -33 -2 -61 3 -50 13 -240 19 -366 2 -36 4 -65 5 -65 0 0 3 -45 5
-100 2 -55 6 -140 9 -190 6 -113 15 -274 21 -385 3 -47 7 -125 10 -175 2 -49
7 -133 9 -185 3 -52 8 -144 12 -205 4 -60 7 -133 8 -160 1 -28 5 -56 9 -62 4
-7 3 -14 -3 -18 -6 -4 -8 -10 -5 -15 3 -4 8 -62 11 -127 3 -65 8 -131 9 -148
2 -16 4 -35 4 -41 1 -6 27 -15 59 -19 31 -4 66 -8 77 -10 11 -2 38 -7 60 -10
22 -3 54 -7 70 -10 73 -12 93 -15 135 -20 25 -3 56 -7 70 -10 14 -3 45 -8 70
-11 25 -3 52 -7 60 -9 8 -2 38 -7 65 -10 28 -3 61 -8 75 -11 47 -11 59 -13
116 -19 31 -3 93 -12 138 -20 45 -8 101 -17 126 -20 25 -3 56 -7 70 -10 14 -2
41 -7 60 -9 19 -3 46 -8 60 -10 14 -3 61 -10 105 -16 44 -6 94 -14 110 -16 35
-6 72 -12 118 -19 44 -6 106 -16 142 -22 17 -3 39 -7 50 -8 68 -10 124 -18
230 -36 66 -10 130 -19 143 -19 l22 0 0 1525 c0 1445 -1 1525 -17 1526 -10 0
-34 2 -53 4 -19 2 -78 6 -130 9 -108 7 -157 15 -143 25 15 10 54 91 44 91 -5
0 -42 15 -83 33 -40 19 -92 42 -115 52 -36 16 -41 21 -32 38 8 14 7 22 -8 33
-10 7 -21 14 -25 14 -3 0 -54 23 -113 50 -59 28 -108 50 -109 50 -2 0 -34 14
-72 32 -38 17 -71 32 -74 33 -3 1 -27 11 -55 24 -85 39 -158 73 -200 91 -36
16 -99 45 -222 102 -40 18 -42 21 -38 56 3 20 7 78 10 127 5 112 13 216 20
275 6 46 10 103 19 225 3 39 8 105 11 149 4 43 8 110 10 150 5 92 16 200 21
205 7 7 458 2 519 -6 l60 -8 -2 -35 c-1 -34 -11 -210 -18 -315 -2 -27 -6 -98
-9 -156 l-6 -106 52 -2 c29 -1 62 -3 73 -5 22 -3 21 -1 10 -107 -4 -41 -2 -69
3 -73 6 -3 51 -8 101 -11 78 -4 91 -2 95 13 3 9 22 78 41 152 44 164 45 169
51 200 11 51 15 31 14 -65 -1 -55 -1 -118 -1 -141 l1 -41 153 1 c111 0 153 4
157 13 4 10 5 1267 1 1335 -1 14 -13 16 -77 15 -42 -1 -76 -3 -77 -4z"/>
<path d="M2285 11542 c-1 -2 -450 -6 -996 -8 -547 -3 -1060 -6 -1141 -7 l-148
-2 5 -179 c2 -98 7 -181 9 -184 6 -6 56 -5 176 2 120 7 401 19 428 17 30 -1
44 -10 36 -22 -3 -5 -57 -9 -122 -8 -160 2 -173 1 -171 -13 4 -34 -2 -40 -31
-36 -17 3 -33 1 -35 -3 -3 -4 -27 -5 -54 -3 -32 3 -52 1 -57 -7 -5 -9 -9 -265
-5 -351 1 -13 10 -16 49 -13 82 5 117 7 127 6 6 -1 11 -98 12 -268 1 -247 6
-818 18 -2458 3 -341 7 -928 10 -1304 2 -376 6 -685 8 -687 2 -2 24 3 48 12
24 9 51 17 59 19 8 2 16 4 18 5 1 2 5 3 10 5 4 1 20 7 36 14 16 6 36 13 45 15
9 2 29 8 45 15 35 14 40 10 41 -37 0 -47 2 -47 170 6 72 22 157 49 190 58 33
10 63 20 67 24 7 5 12 206 23 1055 3 193 7 501 10 685 3 184 7 508 10 720 3
212 7 536 10 720 3 184 7 504 10 710 3 206 7 439 8 518 1 79 0 147 -3 151 -3
5 -15 7 -28 6 -13 -1 -25 1 -27 5 -3 4 -16 5 -30 2 -22 -4 -25 -1 -25 27 0 27
4 31 28 32 15 1 45 3 67 4 56 5 281 15 473 22 l163 5 -5 -23 c-13 -64 -18
-141 -22 -329 -4 -231 -12 -527 -19 -705 -12 -288 -16 -399 -20 -530 -2 -77
-7 -203 -10 -280 -5 -131 -8 -220 -20 -655 -3 -96 -7 -240 -10 -320 -2 -80 -7
-233 -10 -340 -3 -107 -8 -256 -10 -330 -2 -74 -7 -232 -10 -350 -3 -118 -8
-258 -10 -310 -4 -98 -1 -115 18 -103 6 4 24 8 41 10 16 2 39 5 50 7 91 19
116 23 121 18 3 -3 5 -57 5 -119 l0 -114 28 4 c15 3 70 14 122 26 52 11 106
23 120 25 14 3 25 5 25 6 0 1 9 3 20 5 50 7 101 17 106 21 3 2 6 22 7 45 2 49
1 47 32 52 14 3 45 10 70 17 44 12 59 15 103 25 12 2 36 8 52 12 17 4 35 7 40
7 11 1 15 2782 4 2849 -4 20 -4 37 0 37 7 0 5 174 -2 195 -4 8 -3 16 1 19 8 5
7 109 -1 131 -4 8 -2 17 4 20 5 4 7 11 3 16 -3 6 -6 34 -5 62 1 29 1 59 2 67
0 8 -1 83 -1 165 -2 191 -2 186 13 184 6 -1 24 -1 38 0 30 1 27 -26 33 291 5
262 13 561 21 782 l5 146 -231 -1 c-127 -1 -232 -3 -234 -5z"/>
<path d="M9390 11460 l-55 -5 -1 -75 c-3 -149 -4 -163 -11 -156 -4 3 -8 14 -9
23 -11 76 -37 161 -47 157 -7 -2 -61 -5 -122 -7 l-109 -3 -2 -34 c-1 -19 -4
-84 -7 -143 -3 -60 -8 -111 -10 -114 -3 -2 -61 -5 -128 -6 l-123 -2 -3 -1410
c-2 -775 -3 -1417 -3 -1425 0 -8 -1 -49 -1 -90 0 -41 0 -82 0 -90 0 -8 0 -132
0 -276 l0 -261 92 -29 c92 -29 130 -58 86 -66 -12 -2 -80 -3 -150 -3 l-129 0
7 -80 c4 -44 8 -89 9 -100 0 -12 -5 -20 -14 -20 -11 0 -15 -11 -14 -40 2 -67
15 -229 19 -236 3 -3 24 -7 47 -7 24 -1 81 -4 128 -6 47 -3 130 -8 185 -11
199 -11 474 -28 617 -39 164 -13 266 -20 300 -20 21 -1 38 -3 38 -6 0 -3 17
-5 38 -6 63 -1 400 -28 427 -34 19 -4 45 0 44 8 -1 4 -1 21 0 39 1 33 4 34 77
18 11 -2 44 -7 72 -11 l52 -6 -4 58 c-2 33 -5 69 -5 81 -1 22 -23 40 -58 46
-52 10 -113 30 -113 37 0 5 8 6 18 4 9 -2 47 -5 85 -7 l67 -3 -6 35 c-3 20
-13 42 -22 49 -9 6 -17 20 -19 30 -5 28 -15 136 -15 155 1 9 -2 18 -6 18 -33
7 -372 22 -747 35 -104 3 -208 7 -230 8 l-40 1 0 310 c0 171 3 322 7 337 3 14
4 29 1 32 -4 4 -7 120 -3 129 6 13 3 267 -3 267 -5 0 -5 5 -1 12 5 7 9 157 10
333 2 290 6 732 19 2133 3 367 2 472 -8 473 -43 3 -129 0 -134 -4 -3 -4 -13
-3 -22 1 -9 4 -41 5 -71 2z"/>
<path d="M12816 11463 c-2 -2 -119 -5 -262 -7 -142 -3 -270 -8 -284 -11 -24
-6 -156 -9 -618 -16 l-213 -3 5 -57 6 -57 -163 4 c-89 3 -190 6 -225 8 -68 3
-71 1 -77 -44 -8 -50 -14 -93 -20 -139 -3 -25 -8 -47 -10 -51 -3 -5 21 -10 63
-13 6 0 13 -9 13 -19 1 -10 2 -24 3 -30 1 -10 34 -13 131 -13 123 0 130 -1
130 -20 0 -18 -8 -20 -70 -23 -38 -1 -97 -3 -130 -5 l-60 -2 1 -40 c2 -73 6
-80 49 -85 30 -4 40 -9 39 -22 -2 -16 20 -24 50 -19 5 1 46 3 90 4 l81 2 2
-295 c1 -162 4 -628 8 -1035 3 -407 6 -746 6 -752 -1 -49 -1 -62 2 -96 1 -21
-1 -41 -5 -44 -5 -2 -5 -9 -2 -15 10 -15 10 -158 1 -158 -5 0 -5 -5 -1 -12 4
-7 9 -203 10 -436 l2 -425 -105 7 c-58 4 -110 8 -116 9 -16 3 -15 -32 7 -138
12 -64 17 -105 12 -113 -3 -5 -24 -6 -48 -2 -48 9 -61 -1 -48 -35 5 -12 20
-68 35 -126 15 -57 29 -105 30 -107 4 -4 39 -10 104 -17 33 -3 70 -8 82 -10
12 -3 45 -7 73 -10 28 -2 62 -7 75 -10 13 -2 51 -7 85 -10 33 -3 77 -7 96 -10
42 -6 140 -17 157 -18 7 0 10 -4 7 -9 -3 -5 -9 -6 -13 -4 -8 5 -120 17 -206
21 -33 2 -82 6 -110 9 -50 6 -127 13 -220 21 -27 2 -73 6 -102 9 -47 4 -51 3
-43 -12 6 -9 19 -43 31 -74 13 -38 26 -58 37 -59 9 -1 28 -3 42 -5 14 -2 50
-5 81 -8 32 -2 79 -7 105 -10 27 -3 81 -9 119 -12 39 -3 86 -7 105 -9 19 -2
78 -6 130 -10 52 -3 96 -8 98 -10 2 -1 4 -12 5 -24 1 -11 8 -22 17 -22 33 -3
143 -17 180 -23 14 -2 57 -7 95 -11 39 -4 77 -8 85 -10 8 -1 45 -6 82 -9 37
-4 77 -9 90 -11 13 -2 50 -6 83 -10 33 -3 80 -9 105 -12 25 -3 60 -6 78 -7 17
-2 40 -10 50 -18 9 -9 44 -18 77 -22 33 -3 83 -8 110 -11 54 -6 47 -10 166 98
25 23 71 65 103 92 32 28 71 61 86 75 24 22 91 81 158 138 12 11 53 47 90 80
l67 61 -2 58 c-1 32 -4 229 -8 438 -7 396 -9 511 -20 910 -8 292 -12 459 -19
760 -3 127 -8 311 -11 410 -3 99 -7 298 -10 443 -2 144 -6 266 -10 271 -3 5
-1 12 5 16 6 4 8 11 4 16 -3 6 -7 113 -9 239 l-4 228 -267 271 -268 270 -79
-2 c-43 -1 -80 -3 -81 -4z m-180 -673 c47 -43 49 -48 50 -100 1 -30 5 -134 8
-230 4 -96 9 -210 10 -253 2 -49 8 -82 15 -87 10 -6 12 -283 10 -1319 l-4
-1312 -49 -50 c-53 -55 -53 -54 -176 -35 -14 3 -54 7 -90 11 -36 4 -76 8 -90
10 -14 2 -52 6 -85 10 -33 4 -62 9 -64 11 -3 2 -6 66 -8 142 -1 75 -5 223 -7
327 -3 105 -8 289 -11 410 -3 121 -8 312 -11 425 -2 113 -7 286 -9 385 -5 222
-14 561 -20 800 -7 262 -16 653 -19 778 -1 59 0 110 3 112 4 2 107 6 230 9
124 3 226 8 229 10 9 9 41 -11 88 -54z"/>
<path d="M6258 11455 c-3 -3 -18 -8 -34 -11 -16 -3 -56 -12 -89 -21 -33 -8
-68 -17 -79 -19 -10 -2 -20 -5 -23 -7 -2 -2 15 -43 37 -90 22 -48 40 -89 40
-91 0 -3 -53 49 -117 115 l-118 120 -102 -47 c-102 -47 -112 -58 -93 -92 11
-19 61 -129 110 -243 18 -41 41 -94 52 -119 11 -25 26 -58 33 -75 7 -16 24
-56 39 -88 14 -31 37 -85 51 -120 14 -34 30 -69 34 -78 5 -9 25 -54 44 -100
20 -46 43 -102 53 -124 10 -22 18 -42 19 -45 0 -3 9 -23 19 -45 10 -22 22 -49
26 -60 5 -11 21 -49 37 -85 15 -36 28 -67 29 -70 0 -3 9 -23 18 -45 10 -22 54
-125 98 -230 44 -104 87 -206 95 -225 8 -19 20 -46 25 -60 6 -14 17 -38 24
-55 32 -74 94 -226 94 -231 0 -3 -9 -25 -20 -50 -21 -46 -42 -95 -45 -104 0
-3 -13 -30 -27 -60 -14 -30 -44 -100 -68 -154 -23 -54 -45 -106 -50 -115 -14
-26 -60 -131 -60 -136 0 -2 -18 -43 -40 -90 -22 -47 -40 -92 -40 -100 0 -8 -4
-16 -8 -19 -5 -3 -21 -36 -37 -73 -16 -37 -48 -110 -72 -161 -24 -51 -43 -95
-43 -97 0 -2 -18 -43 -40 -90 -22 -47 -40 -88 -40 -90 0 -2 -18 -42 -40 -89
-22 -47 -40 -87 -40 -90 0 -2 -21 -49 -46 -103 -89 -188 -152 -325 -193 -418
-13 -27 -27 -58 -32 -67 -12 -24 -10 -25 96 -43 77 -14 93 -17 137 -27 46 -11
46 -12 31 -35 -9 -13 -14 -25 -12 -27 8 -8 180 -36 288 -48 20 -2 29 7 45 45
10 23 31 71 48 107 17 36 39 87 49 114 20 50 60 114 44 71 -4 -11 -11 -31 -15
-45 -5 -14 -31 -90 -59 -169 -28 -79 -50 -145 -49 -147 2 -1 32 -5 68 -9 36
-4 69 -8 74 -8 11 -2 43 58 50 93 1 5 33 95 73 202 22 61 27 67 47 62 21 -5
28 8 95 168 40 95 79 186 87 202 8 16 14 33 14 37 0 5 13 36 29 69 16 33 28
60 26 60 -2 0 21 56 50 124 29 69 50 127 47 130 -3 3 0 6 6 6 7 0 12 5 12 12
0 24 73 187 81 182 5 -3 9 -11 9 -18 0 -7 6 -26 14 -42 8 -16 21 -46 30 -66 9
-21 23 -54 31 -73 8 -19 22 -50 29 -67 8 -18 78 -175 155 -348 76 -173 158
-355 181 -405 22 -49 53 -116 67 -147 29 -64 26 -63 129 -45 l70 13 40 -81
c21 -44 41 -82 44 -85 3 -3 12 -18 20 -35 20 -41 26 -44 71 -34 21 5 56 11 76
13 21 3 60 9 88 14 27 6 53 8 57 6 5 -3 8 0 8 6 0 6 5 8 10 5 18 -11 11 10
-36 111 -104 222 -110 253 -17 87 l46 -81 43 13 c24 7 45 11 48 8 2 -3 11 -1
18 3 7 4 19 9 28 9 8 1 31 6 50 10 19 5 38 10 43 11 4 1 11 2 17 3 5 0 -22 63
-59 139 -108 218 -135 276 -133 285 1 4 -3 7 -8 7 -6 0 -10 4 -10 9 0 5 -32
76 -71 157 -39 82 -86 181 -104 219 -73 156 -124 263 -150 320 -15 33 -43 94
-63 135 -33 71 -126 274 -177 385 -45 100 -112 246 -162 355 -14 30 -35 75
-46 100 -11 25 -20 52 -20 62 0 13 64 180 134 353 7 17 13 35 15 40 1 6 30 80
64 165 34 85 62 160 64 165 1 6 5 15 8 21 4 6 17 37 28 70 12 32 28 73 35 89
7 17 47 118 90 225 150 379 228 574 255 635 45 100 45 110 0 118 -69 12 -90
20 -82 31 5 6 30 50 56 99 l47 87 -23 9 c-13 5 -78 25 -146 44 -119 33 -124
33 -136 15 -7 -10 -19 -16 -27 -14 -58 18 -66 16 -79 -17 -30 -78 -35 -87 -48
-82 -8 3 -20 5 -28 5 -10 0 -8 13 11 56 29 65 30 71 13 71 -23 1 -131 23 -136
28 -3 3 -15 -23 -27 -57 -21 -59 -24 -63 -51 -61 -32 3 -32 3 -109 -202 -12
-33 -37 -98 -55 -145 -18 -47 -33 -91 -33 -97 0 -7 -4 -13 -9 -13 -4 0 -7 -3
-6 -7 3 -7 -21 -78 -42 -128 -15 -36 -72 -190 -75 -205 -2 -8 -20 -57 -39
-109 -20 -51 -48 -129 -62 -172 -26 -80 -44 -108 -44 -70 0 12 -4 21 -10 21
-5 0 -10 7 -10 15 0 8 -11 36 -25 63 -13 26 -45 92 -71 147 -97 210 -116 250
-125 265 -5 8 -12 22 -15 30 -7 18 -68 147 -136 287 -27 57 -48 104 -46 107 2
2 -5 13 -15 24 -10 11 -20 26 -21 34 -1 7 -38 84 -81 171 -73 148 -94 175
-117 152z"/>
<path d="M4916 11413 c-1 -1 -244 -3 -539 -4 l-537 -2 -1 -26 c-1 -14 -1 -31
0 -36 1 -8 -107 -11 -337 -10 l-337 0 2 -83 c0 -46 4 -86 7 -89 4 -4 162 -15
219 -14 9 0 17 -6 17 -14 0 -9 -17 -14 -55 -17 -30 -1 -55 1 -55 5 0 4 -8 4
-17 0 -10 -5 -44 -8 -75 -7 l-57 2 4 -37 c2 -20 4 -39 4 -43 1 -5 27 -8 59 -8
40 0 59 -4 60 -12 4 -60 14 -155 17 -165 5 -14 -1 -15 -92 -16 -57 -1 -63 -3
-64 -21 0 -12 -2 -118 -4 -236 -3 -118 -7 -322 -9 -453 -3 -130 -8 -242 -11
-247 -3 -6 -1 -10 5 -10 6 0 8 -4 5 -10 -3 -5 -8 -125 -11 -267 -2 -142 -6
-364 -9 -493 -2 -129 -4 -235 -5 -235 0 0 -2 -121 -5 -270 -3 -148 -7 -380
-10 -515 -3 -135 -7 -354 -10 -487 -4 -243 -14 -699 -19 -893 -2 -97 5 -137
23 -125 4 2 21 7 37 9 16 3 40 8 54 11 41 8 84 17 105 20 11 1 49 8 85 14 36
7 79 14 95 17 17 3 57 10 90 16 83 14 94 16 140 23 22 3 65 10 95 15 30 5 71
12 90 14 19 3 51 7 70 10 19 3 51 8 70 11 19 2 51 7 70 9 19 3 53 8 75 11 22
3 49 7 60 9 20 4 119 16 165 21 14 2 43 5 65 9 22 3 62 8 88 10 60 6 63 8 91
64 46 88 37 84 196 97 41 3 91 8 110 11 19 2 78 6 130 9 52 3 104 7 115 9 11
3 22 5 25 5 3 1 6 46 7 101 l2 100 -102 -5 c-56 -3 -119 -7 -139 -10 -37 -4
-58 9 -42 25 5 5 47 11 94 15 137 9 123 -3 124 113 1 61 -3 103 -9 103 -5 1
-19 1 -30 1 -44 -3 -163 -12 -215 -17 -30 -3 -89 -7 -130 -10 -41 -3 -86 -8
-100 -10 -14 -2 -54 -7 -90 -10 -36 -3 -87 -8 -115 -11 -27 -3 -70 -8 -95 -10
-90 -9 -136 -14 -166 -18 -17 -3 -76 -7 -130 -11 -54 -3 -106 -8 -115 -11 -9
-2 -19 1 -21 8 -6 16 -2 307 7 478 3 69 7 150 8 180 2 53 3 55 30 55 15 -1 27
2 27 5 0 3 15 5 33 6 17 0 68 4 112 8 44 4 105 9 135 11 30 3 78 7 105 10 28
2 84 7 125 10 41 3 102 8 135 10 33 3 101 7 150 10 50 3 125 7 168 10 43 3
149 8 235 11 95 3 159 9 163 15 3 6 5 59 3 118 -12 336 -15 457 -19 751 -3
179 -7 388 -10 465 -2 77 -7 279 -10 449 -2 170 -7 311 -9 313 -2 3 0 18 4 34
5 16 6 29 2 29 -4 0 -7 138 -8 308 -1 285 -11 721 -18 767 -3 19 -11 20 -190
20 -103 0 -189 -1 -190 -2z m-1193 -280 c-7 -2 -19 -2 -25 0 -7 3 -2 5 12 5
14 0 19 -2 13 -5z m834 -312 c3 -128 13 -429 17 -526 6 -124 14 -309 21 -495
3 -69 7 -179 10 -245 13 -312 16 -390 20 -520 8 -271 9 -374 5 -379 -5 -4 -74
-9 -290 -21 -47 -3 -110 -7 -140 -10 -30 -2 -97 -7 -148 -11 l-92 -6 5 163 c3
90 7 220 10 289 6 188 16 532 20 740 2 102 5 185 5 185 1 0 5 143 15 590 3
148 8 271 10 273 2 3 71 7 152 9 81 3 149 6 150 7 1 0 53 2 115 2 l114 2 1
-47z"/>
<path d="M7738 6222 c-16 -2 -28 -9 -28 -18 0 -12 -52 -14 -342 -15 -189 -1
-354 -2 -368 -4 -14 -1 -66 -5 -116 -9 -50 -4 -106 -8 -125 -11 -19 -2 -68 -6
-110 -10 -42 -3 -85 -7 -95 -9 -18 -3 -114 -14 -194 -21 -19 -2 -48 -6 -65 -8
-16 -3 -57 -9 -90 -12 -65 -8 -88 -11 -150 -19 -22 -3 -58 -8 -80 -11 -22 -3
-51 -7 -65 -10 -14 -3 -43 -7 -65 -11 -22 -3 -53 -8 -70 -10 -38 -7 -82 -14
-115 -19 -14 -2 -41 -6 -60 -10 -19 -3 -46 -7 -60 -9 -74 -12 -405 -82 -535
-113 -82 -19 -156 -36 -162 -36 -7 0 -13 -6 -13 -14 0 -15 8 -15 166 -13 92 1
113 -2 117 -14 7 -18 -32 -32 -58 -23 -19 8 -25 -3 -15 -28 7 -20 17 -20 3209
-20 2445 0 3204 3 3209 12 8 13 7 77 -2 91 -3 5 -88 9 -196 8 l-190 -1 -1 25
c-1 14 -1 30 0 37 2 15 -9 22 -54 29 -36 5 -45 7 -97 19 -22 5 -34 7 -118 22
-19 3 -44 7 -55 10 -11 2 -36 6 -55 9 -19 2 -48 8 -65 11 -16 3 -39 7 -50 9
-11 2 -33 5 -50 8 -16 3 -43 7 -60 10 -16 2 -50 7 -75 11 -25 4 -58 9 -75 12
-16 2 -43 6 -58 8 -15 2 -44 6 -65 9 -72 10 -204 27 -236 31 -275 31 -363 40
-510 51 -87 7 -88 6 -81 -15 7 -24 20 -23 -170 -22 -240 0 -215 -4 -215 36 0
19 -3 35 -7 36 -14 2 -135 7 -313 14 -181 8 -874 12 -922 7z"/>
<path d="M8250 5385 c-30 -10 -90 -60 -90 -75 0 -4 11 -12 24 -18 21 -9 28 -7
56 18 26 24 39 28 73 25 41 -4 77 -34 73 -59 -7 -39 -24 -59 -81 -96 -111 -72
-144 -112 -152 -180 l-5 -40 151 0 151 0 0 30 0 29 -117 3 -118 3 40 41 c22
23 63 54 90 70 68 39 92 63 102 104 29 107 -78 185 -197 145z"/>
<path d="M8783 5391 c-33 -9 -73 -48 -91 -89 -20 -47 -22 -213 -3 -236 8 -9
10 -16 7 -16 -19 0 41 -64 72 -77 44 -18 114 -11 140 14 48 46 61 82 66 178 9
154 -77 256 -191 226z m94 -73 c41 -45 49 -178 16 -246 -11 -23 -30 -41 -51
-49 -30 -12 -34 -11 -62 16 -33 31 -48 87 -44 156 3 40 4 47 19 98 13 49 87
63 122 25z"/>
<path d="M9340 5392 c-26 -4 -90 -63 -90 -82 0 -6 9 -14 21 -18 16 -6 28 -2
49 20 16 15 37 28 48 28 28 0 72 -38 72 -63 0 -31 -35 -84 -59 -92 -12 -3 -21
-11 -21 -16 0 -5 -4 -9 -10 -9 -31 0 -95 -90 -105 -149 -3 -19 -8 -38 -11 -43
-3 -5 56 -7 130 -6 l136 2 0 30 0 31 -95 -1 c-76 -1 -95 1 -95 13 0 14 77 93
90 93 12 0 67 53 84 81 26 41 14 117 -24 152 -17 15 -38 27 -48 28 -9 0 -24 2
-32 3 -8 1 -26 0 -40 -2z"/>
<path d="M9865 5392 c-31 -7 -65 -33 -80 -62 -13 -25 -13 -28 8 -38 18 -8 25
-5 42 15 11 13 35 26 52 29 26 4 38 0 57 -21 36 -38 22 -85 -36 -127 -53 -37
-108 -90 -108 -105 0 -7 -4 -13 -9 -13 -10 0 -23 -46 -26 -88 -2 -23 -2 -23
129 -20 l131 3 0 25 c0 25 -1 25 -97 28 l-97 3 15 33 c9 18 28 40 43 49 15 8
42 29 61 46 19 17 38 31 42 31 10 0 28 61 28 97 0 79 -72 133 -155 115z"/>
<path d="M6508 5352 c-16 -3 -18 -21 -18 -198 l0 -195 43 3 42 3 1 188 c1 208
-1 213 -68 199z"/>
<path d="M6849 5352 c-11 -2 -13 -18 -11 -70 3 -76 3 -71 0 -135 -2 -27 0 -51
5 -54 4 -2 5 -8 2 -13 -9 -15 -12 -81 -4 -86 5 -2 6 -11 2 -19 -4 -11 3 -15
26 -15 18 0 31 5 32 13 0 6 0 47 -1 89 l-1 77 62 -2 c54 -2 62 0 69 18 12 31
4 35 -64 35 l-64 0 -4 36 c-2 19 -1 37 4 40 4 3 5 11 2 19 -5 12 5 15 52 14
135 -2 141 -1 146 26 5 21 1 25 -21 26 -14 0 -69 1 -122 2 -53 1 -102 1 -110
-1z"/>
<path d="M7343 5352 c-13 -2 -23 -11 -24 -20 -2 -43 1 -136 6 -140 3 -3 0 -10
-5 -17 -6 -7 -6 -23 -1 -43 5 -17 7 -33 4 -36 -5 -5 -6 -38 -4 -108 l1 -28
130 0 130 0 0 28 0 27 -102 0 -101 0 0 35 c1 93 -3 88 59 88 35 0 59 4 64 12
17 27 -2 39 -63 42 l-60 3 0 40 c0 22 1 45 2 52 1 8 27 11 79 11 112 0 109 0
114 27 5 22 2 25 -26 26 -136 3 -184 4 -203 1z"/>
<path d="M5685 5284 c-14 -15 -25 -23 -25 -19 0 4 -9 0 -19 -9 -23 -21 -34
-76 -14 -76 7 0 21 -15 30 -34 20 -42 57 -60 109 -52 38 6 64 27 64 52 0 7 9
11 19 9 15 -3 20 4 23 33 7 52 -8 78 -57 102 -58 28 -100 26 -130 -6z"/>
<path d="M10755 5254 c-8 -6 -15 -16 -15 -23 0 -6 -9 -11 -20 -11 -10 0 -24
-9 -30 -19 -13 -25 -13 -74 0 -66 5 3 18 -12 29 -33 21 -41 41 -52 99 -52 43
0 72 16 72 40 0 11 8 20 22 22 17 2 22 11 24 40 4 42 -23 83 -65 100 -35 15
-97 16 -116 2z"/>
</g>
</svg>
